<?xml version="1.0" encoding="UTF-8"?>
<svg enable-background="new 0 0 2135.6 345.8" version="1.1" viewBox="0 0 2135.6 345.8" xml:space="preserve" xmlns="http://www.w3.org/2000/svg">
<style type="text/css">
.st0{fill:#9578D3;}
</style>
<path class="st0" d="m301.7 78.5c22.4 0 25.7 0 26.2 16.4 0 0 0.1 37 0.1 92.6s-16.4 75.4-53.4 75.4c-40.3 0-56-20.8-56-77.2v-90.8-0.1c0.5-16.3 3.9-16.3 26.2-16.3v-5.4h-91.1v5.4c22.4 0 25.7 0 26.2 16.4 0 0 0.2 58.5 0.2 90.6s1.7 92.9 88.8 92.9 86.4-77.3 86.4-90.6v-92.9-0.1c0.5-16.3 3.9-16.3 26.2-16.3v-5.4h-79.8v5.4z"/>
<path class="st0" d="m802.2 260.5l-82.9-187.4h-11.3l-82.4 187.4c-5.6 9.5-5.9 10.1-28.3 10.1v6.4h73.3v-6.4c-21.7 0-22.1-1.9-19.2-10.1l20.3-51.4h68.5l20.5 51.4c3.5 9 3.8 10.1-5 10.1v6.4h73.4v-6.4c-21.5 0-21.4 0-26.9-10.1zm-124.3-67l27.9-70.7 28.2 70.7h-56.1z"/>
<path class="st0" d="m960.6 184c12.5-5.8 35.2-19 35.2-54.8 0-61-77.3-56.1-93.4-56.1h-63.5v5.4c22.3 0 25.7 0 26.1 16.3v159.5c-0.5 16.3-3.8 16.3-26.1 16.3v6.4h89.7v-6.4c-22.3 0-25.7 0-26.2-16.4v-60.7l25.6 0.1c3.1 0 4.4 1.3 5.2 2.5 35.3 48.6 54.6 78.1 84.2 81.3 29.9 3.3 40.5-0.1 40.5-0.1v-6.3c-39 0-68.7-50.3-97.3-87zm-58.3-89.1v-1.7c0.2-1.7 0.8-4.4 3.6-4.9 0.3 0 0.7-0.1 1.1-0.1s0.7 0 1.1-0.1c29.3-2.5 54 8.2 54 47.4 0 42.3-29.1 44.2-33.4 44.2-3.3 0-19 0-26.3 0.1v-84.9z"/>
<path class="st0" d="m613.5 175.7h-90.3v5.4c22.4 0 25.7 0 26.2 16.4v54.5c0 7-1.1 12.2-27.9 12.2-44.1 0-92.6-30.8-92.6-98.4 0-67.5 44.4-81.2 79.3-81.2s69.9 17.3 69.9 42.7l6.4 0.4s2.8-22 2.8-49.2c0 0-24.5-8.4-79.2-8.4s-120.3 29.6-120.3 105.2 62.2 103.9 128.6 103.9 70.8-14.4 70.8-14.4v-67.3c0.5-16.3 3.9-16.3 26.2-16.3v-5.5z"/>
<path class="st0" d="m119.9 260h-30.2c-23.1 0-26.2-10.5-26.2-27.8v-137.4c0.5-16.3 3.8-16.3 26.2-16.3v-5.4h-89.7v5.4c22.4 0 25.7 0 26.2 16.4v137.3c0 37.9 0 37.9-26.2 37.9v6.3h151.7v-44.3h-5.7c0.1 17.3-3 27.9-26.1 27.9z"/>
<path class="st0" d="m1449.5 78c22.3 0 25.7 0 26.2 16.4v137.8c0 51.6-1.2 86-40.3 108.4l2.2 5.2c18.5-4.3 75.5-18.2 75.5-113.6v-137.9c0.5-16.3 3.9-16.3 26.2-16.3v-5.4h-89.7v5.4z"/>
<path class="st0" d="M1801.6,78c22.3,0,25.7,0,26.1,16.4v159.4c-0.5,16.3-3.8,16.3-26.1,16.3v6.4h89.7v-6.4 c-22.4,0-25.7,0-26.2-16.4V94.3c0.5-16.3,3.8-16.3,26.2-16.3v-5.4h-89.7V78z"/>
<path class="st0" d="m2108.7 259.9l-82.9-187.3h-11.3l-82.5 187.3c-5.7 9.5-4.5 10.1-26.9 10.1v6.4h71.9v-6.4c-21.8 0-22.1-1.9-19.2-10.1l20.3-51.4h68.5l20.5 51.4c3.5 9 3.8 10.1-5 10.1v6.4h73.4v-6.4c-21.4 0.1-21.2 0.1-26.8-10.1zm-124.3-67l28-70.7 28.1 70.7h-56.1z"/>
<path class="st0" d="m1672 71c-74.4 0-115.2 46-115.2 103.8 0 57.4 45 104.5 112.4 104.5 71.6 0 115.2-41.9 115.2-109.3-0.1-62.1-51.6-99-112.4-99zm8.5 194.5c-39.6 0-82.7-30.4-82.7-99 0-68.5 41.9-82.8 65.9-82.8 46.4 0 79.1 43.7 79.1 96.1 0.1 52.4-27.5 85.7-62.3 85.7z"/>
<path class="st0" d="m1716.7 28.6l3.4-2c0-2.7-9.7-24.9-12.9-26.1-3.2-1.1-3.8-5.3-62 46l2.2 2.8c-0.1 0 44.4-24.8 69.3-20.7z"/>
<path class="st0" d="m1343.6 220.2l-39.9-90.3h-5.4l-39.7 90.3c-2.7 4.5-2.9 4.9-13.6 4.9v3.1h35.3v-3.1c-10.4 0-10.6-0.9-9.2-4.9l9.8-24.8h33l9.9 24.8c1.7 4.3 1.8 4.9-2.4 4.9v3.1h35.3v-3.1c-10.5 0-10.4 0-13.1-4.9zm-59.9-32.3l13.5-34 13.6 34h-27.1z"/>
<path class="st0" d="m1182 130.1h-43.9v2.6c11 0 12.6 0 12.8 8v76.7c-0.2 8-1.9 8-12.8 8v2.6h43.9c33.4 1.3 64.7-8.5 64.7-52.3 0-43.7-52.6-45.6-64.7-45.6zm-7.9 91c-4-0.9-4.9-1.9-4.9-9.8v-68.4c0-2 0.1-4.9 2.5-5.2 26.6-4.6 55.8 9 55.8 40.9 0 28-10.8 49.9-53.4 42.5z"/>
</svg>
